<svg xmlns="http://www.w3.org/2000/svg" xmlns:xlink="http://www.w3.org/1999/xlink" version="1.1" id="Layer_1" x="0px" y="0px" width="100px" height="100px" viewBox="0 0 100 100" enable-background="new 0 0 100 100" xml:space="preserve">
<g>
	<path fill="#000000" d="M61.646,7.993c-0.52-4.31-5.37-7.699-11.262-7.699c-5.924,0-10.796,3.424-11.27,7.767   c-12.296,3.693-21.049,13.193-21.049,24.332H82.92C82.92,21.186,74.062,11.636,61.646,7.993z M42.153,7.285   c0.89-2.783,4.241-4.86,8.23-4.86c3.964,0,7.299,2.051,8.213,4.809c-2.591-0.534-5.305-0.818-8.103-0.818   C47.61,6.416,44.815,6.719,42.153,7.285z"/>
	<path fill="#000000" d="M39.303,61.195l-8.028,31.798c-1.636,0.256-2.888,1.666-2.888,3.373c0,1.888,1.53,3.416,3.417,3.416   c1.887,0,3.417-1.528,3.417-3.416c0-0.965-0.399-1.834-1.039-2.453l4.351-19.187H49.06l-0.177,16.801h3.134l-0.23-16.801H62.09   l4.352,19.188c-0.641,0.62-1.04,1.486-1.04,2.451c0,1.888,1.531,3.416,3.418,3.416s3.417-1.528,3.417-3.416   c0-1.707-1.252-3.117-2.888-3.373l-8.004-31.701c12.57-3.575,21.575-13.188,21.575-24.486H18.064   C18.064,48.002,26.907,57.544,39.303,61.195z M38.857,73.303l2.618-11.539c2.462,0.57,5.045,0.911,7.712,0.997l-0.112,10.542   H38.857z M61.767,73.303h-9.999l-0.145-10.537c2.604-0.07,5.131-0.387,7.544-0.922L61.767,73.303z"/>
</g>
</svg>